<svg xmlns="http://www.w3.org/2000/svg" width="40" height="39.992" viewBox="0 0 40 39.992">
  <g id="friendship" transform="translate(0 -0.049)">
    <g id="Group_17028" data-name="Group 17028" transform="translate(33.149 3.166)">
      <g id="Group_17027" data-name="Group 17027">
        <path id="Path_18248" data-name="Path 18248" d="M425.624,39.951h-.536a.781.781,0,0,0,0,1.563h.536a.781.781,0,0,0,0-1.563Z" transform="translate(-424.307 -39.951)" fill="#922d3e"/>
      </g>
    </g>
    <g id="Group_17030" data-name="Group 17030" transform="translate(36.94 3.166)">
      <g id="Group_17029" data-name="Group 17029">
        <path id="Path_18249" data-name="Path 18249" d="M474.145,39.951h-.536a.781.781,0,0,0,0,1.563h.536a.781.781,0,0,0,0-1.563Z" transform="translate(-472.828 -39.951)" fill="#922d3e"/>
      </g>
    </g>
    <g id="Group_17032" data-name="Group 17032" transform="translate(35.312 4.794)">
      <g id="Group_17031" data-name="Group 17031">
        <path id="Path_18250" data-name="Path 18250" d="M452.778,60.782a.781.781,0,0,0-.781.781V62.1a.781.781,0,1,0,1.563,0v-.536A.781.781,0,0,0,452.778,60.782Z" transform="translate(-451.997 -60.782)" fill="#922d3e"/>
      </g>
    </g>
    <g id="Group_17034" data-name="Group 17034" transform="translate(35.312 1.003)">
      <g id="Group_17033" data-name="Group 17033">
        <path id="Path_18251" data-name="Path 18251" d="M452.778,12.262a.781.781,0,0,0-.781.781v.536a.781.781,0,1,0,1.563,0v-.536A.781.781,0,0,0,452.778,12.262Z" transform="translate(-451.997 -12.262)" fill="#922d3e"/>
      </g>
    </g>
    <g id="Group_17036" data-name="Group 17036" transform="translate(0 12.798)">
      <g id="Group_17035" data-name="Group 17035">
        <path id="Path_18252" data-name="Path 18252" d="M1.317,163.234H.781a.781.781,0,1,0,0,1.563h.536a.781.781,0,1,0,0-1.562Z" transform="translate(0 -163.234)" fill="#922d3e"/>
      </g>
    </g>
    <g id="Group_17038" data-name="Group 17038" transform="translate(3.791 12.798)">
      <g id="Group_17037" data-name="Group 17037">
        <path id="Path_18253" data-name="Path 18253" d="M49.838,163.234H49.3a.781.781,0,1,0,0,1.563h.536a.781.781,0,0,0,0-1.562Z" transform="translate(-48.521 -163.234)" fill="#922d3e"/>
      </g>
    </g>
    <g id="Group_17040" data-name="Group 17040" transform="translate(2.163 14.425)">
      <g id="Group_17039" data-name="Group 17039">
        <path id="Path_18254" data-name="Path 18254" d="M28.471,184.064a.781.781,0,0,0-.781.781v.536a.781.781,0,0,0,1.563,0v-.536A.781.781,0,0,0,28.471,184.064Z" transform="translate(-27.69 -184.064)" fill="#922d3e"/>
      </g>
    </g>
    <g id="Group_17042" data-name="Group 17042" transform="translate(2.163 10.635)">
      <g id="Group_17041" data-name="Group 17041">
        <path id="Path_18255" data-name="Path 18255" d="M28.471,135.543a.781.781,0,0,0-.781.781v.536a.781.781,0,0,0,1.563,0v-.536A.781.781,0,0,0,28.471,135.543Z" transform="translate(-27.69 -135.543)" fill="#922d3e"/>
      </g>
    </g>
    <g id="Group_17044" data-name="Group 17044" transform="translate(0 0.049)">
      <g id="Group_17043" data-name="Group 17043" transform="translate(0 0)">
        <path id="Path_18256" data-name="Path 18256" d="M39.176,28.579a2.824,2.824,0,0,0-3.668-.3l-5.161,3.71a2.709,2.709,0,0,0-.729-1.414c-.045-.045-.092-.088-.14-.129,0-.018,0-.036,0-.054V20.735h1.729a.781.781,0,0,0,.781-.781V11.077a3.316,3.316,0,0,0-3.313-3.311h-.717a.424.424,0,0,1-.289-.114A3.561,3.561,0,0,0,29.145,4.77V3.614a3.566,3.566,0,0,0-7.132,0V4.77a3.561,3.561,0,0,0,1.471,2.882.424.424,0,0,1-.289.114H21.954a.781.781,0,0,0,0,1.563h1.241a1.984,1.984,0,0,0,.494-.062L24.8,10.895v3.048a.781.781,0,0,0,1.563,0V10.895l1.109-1.628a1.986,1.986,0,0,0,.493.062h.717a1.751,1.751,0,0,1,1.75,1.749v8.095h-.948V12.59a.781.781,0,1,0-1.563,0v5.422h-4.68V12.59a.781.781,0,0,0-1.563,0V29.7a1.562,1.562,0,0,1-.368-.274l-3.384-3.4V20.85h1.667a.781.781,0,0,0,.781-.781v-8.99A3.316,3.316,0,0,0,17.06,7.766H16.4a.423.423,0,0,1-.289-.114A3.561,3.561,0,0,0,17.588,4.77V3.614a3.566,3.566,0,0,0-7.132,0V4.77a3.561,3.561,0,0,0,1.472,2.882.423.423,0,0,1-.289.114h-.655a3.316,3.316,0,0,0-3.313,3.313v8.99a.781.781,0,0,0,.781.781H10.12v3.03H7.812V22.385a.781.781,0,0,0-.781-.781H.781A.781.781,0,0,0,0,22.385V39.26a.781.781,0,0,0,.781.781h6.25a.781.781,0,0,0,.781-.781V38.133l1.4.552a19.312,19.312,0,0,0,7.126,1.357H27.114a7.707,7.707,0,0,0,4.767-1.66l.739-.586a.781.781,0,1,0-.97-1.225l-.739.586a6.138,6.138,0,0,1-3.8,1.322H16.336a17.756,17.756,0,0,1-6.552-1.247l-1.972-.779V25.443h6.025a3.1,3.1,0,0,1,2.208.914L20.2,30.532a3.1,3.1,0,0,0,2.21.915h5.55a.776.776,0,0,1,.552.229A1.276,1.276,0,0,1,28.746,33a.755.755,0,0,1-.177.269l-.02.017a.48.48,0,0,1-.327.113H19.59a2.776,2.776,0,0,1-1.517-.45l-2.509-1.632-.009-.006a.781.781,0,1,0-.85,1.311l2.516,1.637a4.334,4.334,0,0,0,2.369.7h8.632a2.04,2.04,0,0,0,1.338-.484l6.861-4.932a1.274,1.274,0,0,1,1.534,2.033l-1.136.9a.781.781,0,1,0,.97,1.225l1.136-.9a2.836,2.836,0,0,0,.251-4.222ZM25.579,1.612A2.007,2.007,0,0,1,27.42,2.823L26.9,2.516a.781.781,0,0,0-.994.172,2.273,2.273,0,0,1-1.746.815h-.577A2.006,2.006,0,0,1,25.579,1.612Zm0,7.655-.65-.954.019-.035a3.521,3.521,0,0,0,1.261,0l.02.035Zm2-4.5a2,2,0,0,1-3.985.295h.558a3.832,3.832,0,0,0,2.468-.9l.959.563ZM6.25,38.479H1.563V23.166H6.25ZM14.022,6.772A2.006,2.006,0,0,1,12.04,5.065H12.6a3.831,3.831,0,0,0,2.468-.9l.959.563V4.77A2,2,0,0,1,14.022,6.772Zm.65,1.541-.649.953-.65-.954.019-.035a3.52,3.52,0,0,0,1.26,0Zm-.65-6.7a2.007,2.007,0,0,1,1.841,1.212l-.523-.307a.781.781,0,0,0-.994.172A2.273,2.273,0,0,1,12.6,3.5h-.577A2.006,2.006,0,0,1,14.022,1.612ZM13.241,23.88H11.682V19.574h1.559Zm3.121-3.811v4.549A4.63,4.63,0,0,0,14.8,23.98V19.574h1.559Zm.781-8.26a.781.781,0,0,0-.781.781v5.422h-4.68V12.59a.781.781,0,0,0-1.563,0v6.7H9.234V11.079a1.752,1.752,0,0,1,1.75-1.75h.655a1.983,1.983,0,0,0,.493-.062l1.109,1.628v3.049a.781.781,0,1,0,1.563,0V10.9l1.109-1.628a1.985,1.985,0,0,0,.493.062h.656a1.752,1.752,0,0,1,1.75,1.75v8.209h-.886v-6.7A.781.781,0,0,0,17.143,11.808ZM24.8,29.885H23.239V19.574H24.8Zm3.121,0H26.36V19.574h1.559Z" transform="translate(0 -0.049)" fill="#922d3e"/>
      </g>
    </g>
    <g id="Group_17046" data-name="Group 17046" transform="translate(34.098 34.216)">
      <g id="Group_17045" data-name="Group 17045">
        <path id="Path_18257" data-name="Path 18257" d="M437.867,437.685a.781.781,0,0,0-1.1-.127l-.015.012a.781.781,0,1,0,.97,1.225l.015-.012A.781.781,0,0,0,437.867,437.685Z" transform="translate(-436.459 -437.389)" fill="#922d3e"/>
      </g>
    </g>
    <g id="Group_17048" data-name="Group 17048" transform="translate(3.125 35.208)">
      <g id="Group_17047" data-name="Group 17047">
        <path id="Path_18258" data-name="Path 18258" d="M41.334,450.317a.782.782,0,1,0,.229.553A.786.786,0,0,0,41.334,450.317Z" transform="translate(-40 -450.089)" fill="#922d3e"/>
      </g>
    </g>
    <g id="Group_17050" data-name="Group 17050" transform="translate(3.125 25.805)">
      <g id="Group_17049" data-name="Group 17049">
        <path id="Path_18259" data-name="Path 18259" d="M40.781,329.723A.781.781,0,0,0,40,330.5v6.326a.781.781,0,0,0,1.563,0V330.5A.781.781,0,0,0,40.781,329.723Z" transform="translate(-40 -329.723)" fill="#922d3e"/>
      </g>
    </g>
  </g>
</svg>
