<svg xmlns="http://www.w3.org/2000/svg" width="40" height="39.99" viewBox="0 0 40 39.99">
  <g id="goal" transform="translate(0 -0.063)">
    <g id="Group_17052" data-name="Group 17052" transform="translate(33.687 29.509)">
      <g id="Group_17051" data-name="Group 17051">
        <path id="Path_18260" data-name="Path 18260" d="M432.526,377.2a.781.781,0,1,0,.229.552A.788.788,0,0,0,432.526,377.2Z" transform="translate(-431.193 -376.968)" fill="#922d3e"/>
      </g>
    </g>
    <g id="Group_17054" data-name="Group 17054" transform="translate(0 0.063)">
      <g id="Group_17053" data-name="Group 17053" transform="translate(0 0)">
        <path id="Path_18261" data-name="Path 18261" d="M39.506,38.55,35.249,36.8v-3.5a.781.781,0,0,0-1.562,0v2.862l-2.187-.9v-8.3a.781.781,0,0,0-1.562,0v7.656l-2.187-.9V25.447h5.936v1.641a.781.781,0,0,0,1.562,0V24.675s0,0,0,0,0,0,0,0h0V18.884l4.475-7.9A2.135,2.135,0,0,0,40,9.938a2.13,2.13,0,0,0-3.818-1.3l-1.241,1.53a.779.779,0,0,0,.006-.091V9.726a4.214,4.214,0,0,0-5.172-4.107l-2-1.919,2.3-2.3A.781.781,0,0,0,29.53.063H22.573a.781.781,0,0,0-.781.781V2.411H20.005a.781.781,0,0,0-.781.781v10.74a2.277,2.277,0,0,0-.737-.122H12.556a4.2,4.2,0,0,0,.944-2.656v-.941c0-.023,0-.046,0-.068s0-.045,0-.068V9.726a4.218,4.218,0,1,0-8.435,0v.351c0,.023,0,.045,0,.068s0,.02,0,.031L3.819,8.638a2.1,2.1,0,0,0-2.368-.719A2.1,2.1,0,0,0,0,9.938a2.135,2.135,0,0,0,.277,1.05l4.475,7.9V36.8L.485,38.549a.781.781,0,1,0,.594,1.445l18.927-7.779,18.907,7.778a.781.781,0,1,0,.594-1.445ZM30.729,7.071A2.66,2.66,0,0,1,33.35,9.3h-.864a2.988,2.988,0,0,1-2.3-1.071.781.781,0,0,0-1.38.5.533.533,0,0,1-.516.535l-.181.006A2.66,2.66,0,0,1,30.729,7.071Zm-2.665,3.761.284-.01a2.09,2.09,0,0,0,1.554-.767,4.546,4.546,0,0,0,2.584.8h.889v.3a2.656,2.656,0,0,1-5.311,0v-.322Zm3.229,4.54-.579,1.86-.579-1.86ZM27.644,1.625,26.111,3.158a.781.781,0,0,0,.011,1.115l1.469,1.413H23.354V1.625ZM20.786,9.441h4.353a.781.781,0,0,0,.781-.781V7.249h1.4a4.194,4.194,0,0,0-.807,2.477v.351s0,.009,0,.013a.784.784,0,0,0-.011.123v.941a4.2,4.2,0,0,0,.944,2.656H21.513a2.28,2.28,0,0,0-.727.119V9.441Zm0-5.468h1.005V6.468a.781.781,0,0,0,.781.781h1.785v.63H20.786Zm-11.5,3.1a2.66,2.66,0,0,1,2.616,2.2l-.181-.006a.533.533,0,0,1-.516-.535.781.781,0,0,0-1.38-.5A2.987,2.987,0,0,1,7.526,9.3H6.661A2.66,2.66,0,0,1,9.282,7.071ZM6.626,10.858h.9a4.547,4.547,0,0,0,2.584-.8,2.09,2.09,0,0,0,1.554.767l.274.009v.322a2.656,2.656,0,1,1-5.311,0v-.3Zm3.235,4.513-.579,1.86L8.7,15.372ZM12.25,33.714l-2.187.9V26.957a.781.781,0,0,0-1.562,0v8.3l-2.187.9V25.447H12.25v8.267Zm0-15.3v5.467H6.313V18.678a.781.781,0,0,0-.1-.385L1.637,10.218a.569.569,0,0,1-.074-.28A.552.552,0,0,1,1.95,9.4a.552.552,0,0,1,.634.195l.015.019,4.342,5.353,1.6,5.125a.781.781,0,0,0,1.492,0L11.5,15.372h6.991a.727.727,0,0,1,.1,1.446l-5.675.827A.781.781,0,0,0,12.249,18.418Zm13.939,6.253s0,0,0,.005v8.395L20.3,30.649a.781.781,0,0,0-.594,0l-5.9,2.423v-8.4s0-5.583,0-5.583l5.006-.73a2.262,2.262,0,0,0,.407-.1v6.869a.781.781,0,1,0,1.562,0V18.268a2.254,2.254,0,0,0,.4.1l5.006.73v5.573h0S26.189,24.669,26.189,24.671Zm.894-7.026-5.675-.827a.727.727,0,0,1,.1-1.446H28.5l1.469,4.719a.781.781,0,0,0,1.492,0l1.593-5.115L37.4,9.613l.015-.019a.568.568,0,0,1,1.021.344.569.569,0,0,1-.074.28l-4.576,8.075a.782.782,0,0,0-.1.385v5.207H27.751V18.418A.781.781,0,0,0,27.083,17.645Z" transform="translate(0 -0.063)" fill="#922d3e"/>
      </g>
    </g>
    <g id="Group_17056" data-name="Group 17056" transform="translate(19.225 27.556)">
      <g id="Group_17055" data-name="Group 17055">
        <path id="Path_18262" data-name="Path 18262" d="M247.4,352.2a.781.781,0,1,0,.229.552A.787.787,0,0,0,247.4,352.2Z" transform="translate(-246.071 -351.974)" fill="#922d3e"/>
      </g>
    </g>
  </g>
</svg>
