<svg xmlns="http://www.w3.org/2000/svg" width="16" height="15.219" viewBox="0 0 16 15.219">
  <g id="mail" transform="translate(0 -12.493)">
    <g id="Group_17057" data-name="Group 17057" transform="translate(0 12.493)">
      <path id="Path_18263" data-name="Path 18263" d="M16,18.939a1.348,1.348,0,0,0-.155-.6,1.448,1.448,0,0,0-.439-.487l-1.931-1.5V14.791a.313.313,0,0,0-.312-.312H11.07L8.926,12.812a1.507,1.507,0,0,0-1.853,0L4.93,14.479H2.839a.313.313,0,0,0-.312.313v1.558l-1.934,1.5A1.445,1.445,0,0,0,0,18.965v7.409a1.341,1.341,0,0,0,1.339,1.339H6.374a.313.313,0,0,0,0-.625H1.339a.715.715,0,0,1-.714-.714V18.965a.622.622,0,0,1,.005-.078l7.2,4.645h0l0,0,5.729,3.553H9.119a.312.312,0,1,0,0,.625h5.542A1.341,1.341,0,0,0,16,26.373V18.965C16,18.956,16,18.947,16,18.939Zm-.975-.591.007.005.006,0-1.563,1.008V17.141ZM7.457,13.3a.883.883,0,0,1,1.085,0l1.509,1.174h-4.1ZM.979,18.345l1.547-1.2v2.225L.964,18.358l.016-.013ZM3.151,15.1h9.7v4.665L8,22.9,3.151,19.769ZM15.375,26.373a.722.722,0,0,1-.633.709L8.585,23.263l6.787-4.378V18.9c0,.011,0,.021,0,.032s0,.006,0,.009,0,.006,0,.008,0,.005,0,.008v7.417Z" transform="translate(0 -12.493)" fill="#922d3e"/>
      <path id="Path_18264" data-name="Path 18264" d="M239.525,479.839a.312.312,0,1,0-.115.379A.315.315,0,0,0,239.525,479.839Z" transform="translate(-231.457 -465.051)" fill="#922d3e"/>
      <path id="Path_18265" data-name="Path 18265" d="M168.689,152.6H173.6a.313.313,0,0,0,0-.625h-4.914a.313.313,0,0,0,0,.625Z" transform="translate(-163.115 -147.615)" fill="#922d3e"/>
      <path id="Path_18266" data-name="Path 18266" d="M173.916,217.094a.313.313,0,0,0-.312-.312h-4.914a.312.312,0,0,0,0,.625H173.6A.312.312,0,0,0,173.916,217.094Z" transform="translate(-163.115 -210.398)" fill="#922d3e"/>
    </g>
  </g>
</svg>
