<svg xmlns="http://www.w3.org/2000/svg" width="16" height="15.488" viewBox="0 0 16 15.488">
  <g id="phone" transform="translate(0 -8.194)">
    <g id="Group_17058" data-name="Group 17058" transform="translate(0 8.194)">
      <path id="Path_18267" data-name="Path 18267" d="M14.419,23.79l-2.71-1.249a.313.313,0,0,0-.352.063l-1.269,1.269h0L8.211,25.75,3.746,21.285l1.877-1.877h0l1.269-1.269a.313.313,0,0,0,.063-.352l-1.249-2.71a1.485,1.485,0,0,0-1.911-.756,5.326,5.326,0,0,0-1.926,1.355,6.879,6.879,0,0,0-1.857,4.44,8.394,8.394,0,0,0,1.709,5.512.313.313,0,1,0,.5-.371A7.776,7.776,0,0,1,.636,20.152a6.354,6.354,0,0,1,1.472-3.816L4.96,19.188,3.083,21.064a.313.313,0,0,0,0,.442L7.99,26.413a.312.312,0,0,0,.442,0l1.877-1.877,2.857,2.852a6.376,6.376,0,0,1-3.885,1.489,7.773,7.773,0,0,1-5.19-1.713.313.313,0,0,0-.382.495,8.438,8.438,0,0,0,5.219,1.853c.133,0,.261,0,.383-.009a6.908,6.908,0,0,0,4.514-1.875A5.354,5.354,0,0,0,15.174,25.7a1.485,1.485,0,0,0-.756-1.911ZM4.031,14.9a.861.861,0,0,1,1.108.438L6.3,17.851l-.895.895L2.538,15.882A4.837,4.837,0,0,1,4.031,14.9ZM14.6,25.465a4.873,4.873,0,0,1-.976,1.492l-2.869-2.864.894-.894,2.512,1.158A.861.861,0,0,1,14.6,25.465Z" transform="translate(0 -14.023)" fill="#922d3e"/>
      <path id="Path_18268" data-name="Path 18268" d="M82.406,397.412a.312.312,0,1,0-.109.375A.315.315,0,0,0,82.406,397.412Z" transform="translate(-79.249 -385.062)" fill="#922d3e"/>
      <path id="Path_18269" data-name="Path 18269" d="M291.094,100.459a3.063,3.063,0,0,1,3.061,2.973.312.312,0,0,0,.312.3h.009a.313.313,0,0,0,.3-.321,3.688,3.688,0,0,0-3.686-3.58h0a.313.313,0,0,0,0,.625Z" transform="translate(-281.693 -96.97)" fill="#922d3e"/>
      <path id="Path_18270" data-name="Path 18270" d="M280.5,10.271a7.046,7.046,0,0,0-5.014-2.077h0a.313.313,0,0,0,0,.625,6.466,6.466,0,0,1,6.463,6.275.312.312,0,0,0,.312.3h.009a.313.313,0,0,0,.3-.322A7.062,7.062,0,0,0,280.5,10.271Z" transform="translate(-266.573 -8.194)" fill="#922d3e"/>
    </g>
  </g>
</svg>
