<svg xmlns="http://www.w3.org/2000/svg" width="40" height="39.999" viewBox="0 0 40 39.999">
  <g id="relations" transform="translate(0 -0.007)">
    <g id="Group_17006" data-name="Group 17006" transform="translate(14.815 3.13)">
      <g id="Group_17005" data-name="Group 17005">
        <path id="Path_18237" data-name="Path 18237" d="M195.819,40.017a16.9,16.9,0,0,0-5.619.611.781.781,0,1,0,.426,1.5,15.345,15.345,0,0,1,5.1-.555.781.781,0,0,0,.092-1.56Z" transform="translate(-189.632 -39.987)" fill="#922d3e"/>
      </g>
    </g>
    <g id="Group_17008" data-name="Group 17008" transform="translate(23.565 3.725)">
      <g id="Group_17007" data-name="Group 17007">
        <path id="Path_18238" data-name="Path 18238" d="M302.69,47.652l-.061-.017a.781.781,0,1,0-.418,1.505l.052.015a.781.781,0,1,0,.427-1.5Z" transform="translate(-301.638 -47.606)" fill="#922d3e"/>
      </g>
    </g>
    <g id="Group_17010" data-name="Group 17010" transform="translate(34.614 14.629)">
      <g id="Group_17009" data-name="Group 17009">
        <path id="Path_18239" data-name="Path 18239" d="M444.619,187.729a.781.781,0,1,0-1.5.445,15.319,15.319,0,0,1-.03,8.846.781.781,0,1,0,1.495.455A16.876,16.876,0,0,0,444.619,187.729Z" transform="translate(-443.057 -187.17)" fill="#922d3e"/>
      </g>
    </g>
    <g id="Group_17012" data-name="Group 17012" transform="translate(17.343 34.658)">
      <g id="Group_17011" data-name="Group 17011">
        <path id="Path_18240" data-name="Path 18240" d="M229.967,444.1a.782.782,0,0,0-.971-.528,15.288,15.288,0,0,1-6.137.524.781.781,0,1,0-.181,1.552,17.1,17.1,0,0,0,1.981.116,16.832,16.832,0,0,0,4.78-.694A.781.781,0,0,0,229.967,444.1Z" transform="translate(-221.988 -443.539)" fill="#922d3e"/>
      </g>
    </g>
    <g id="Group_17014" data-name="Group 17014" transform="translate(14.694 34.672)">
      <g id="Group_17013" data-name="Group 17013">
        <path id="Path_18241" data-name="Path 18241" d="M189.119,443.761l-.042-.012a.781.781,0,1,0-.438,1.5l.05.015a.781.781,0,0,0,.43-1.5Z" transform="translate(-188.076 -443.717)" fill="#922d3e"/>
      </g>
    </g>
    <g id="Group_17016" data-name="Group 17016" transform="translate(3.13 14.3)">
      <g id="Group_17015" data-name="Group 17015">
        <path id="Path_18242" data-name="Path 18242" d="M42.4,193.5a15.468,15.468,0,0,1-.047-9.516.781.781,0,1,0-1.488-.477,17.042,17.042,0,0,0,.052,10.484A.781.781,0,0,0,42.4,193.5Z" transform="translate(-40.064 -182.962)" fill="#922d3e"/>
      </g>
    </g>
    <g id="Group_17018" data-name="Group 17018" transform="translate(25.921 25.947)">
      <g id="Group_17017" data-name="Group 17017">
        <path id="Path_18243" data-name="Path 18243" d="M345.034,341.227l-.609-.609a2.839,2.839,0,0,0-1.266-.736l.323-.47a2.924,2.924,0,0,0-.342-3.725l-3.414-3.414a.781.781,0,0,0-1.1,1.1l3.414,3.414a1.362,1.362,0,0,1,.159,1.734l-1.071,1.557a2.869,2.869,0,0,0-1.277,1.282l-1.573,1.082a1.361,1.361,0,0,1-1.734-.159l-3.414-3.414a.781.781,0,0,0-1.1,1.1l3.414,3.414a2.924,2.924,0,0,0,3.725.341l.491-.338a2.841,2.841,0,0,0,.734,1.261l.609.609a2.857,2.857,0,0,0,4.04-4.04Zm-1.1,2.935a1.294,1.294,0,0,1-1.83,0l-.609-.609a1.294,1.294,0,1,1,1.83-1.83l.609.609a1.294,1.294,0,0,1,0,1.83Z" transform="translate(-331.792 -332.045)" fill="#922d3e"/>
      </g>
    </g>
    <g id="Group_17020" data-name="Group 17020" transform="translate(0 25.927)">
      <g id="Group_17019" data-name="Group 17019">
        <path id="Path_18244" data-name="Path 18244" d="M13.829,338.616a.781.781,0,0,0-1.1,0L9.311,342.03a1.361,1.361,0,0,1-1.734.159l-1.557-1.071a2.868,2.868,0,0,0-1.282-1.277l-1.082-1.573a1.362,1.362,0,0,1,.159-1.734l3.414-3.414a.781.781,0,0,0-1.1-1.1l-3.414,3.414a2.924,2.924,0,0,0-.341,3.725l.338.491a2.839,2.839,0,0,0-1.261.734l-.609.609a2.857,2.857,0,1,0,4.04,4.04l.609-.609a2.84,2.84,0,0,0,.736-1.266l.47.323a2.924,2.924,0,0,0,3.725-.341l3.414-3.414A.781.781,0,0,0,13.829,338.616Zm-9.449,4.7-.609.609a1.294,1.294,0,1,1-1.83-1.83l.609-.609a1.294,1.294,0,1,1,1.83,1.83Z" transform="translate(0 -331.786)" fill="#922d3e"/>
      </g>
    </g>
    <g id="Group_17022" data-name="Group 17022" transform="translate(0.001 0.007)">
      <g id="Group_17021" data-name="Group 17021">
        <path id="Path_18245" data-name="Path 18245" d="M13.865,6.129,10.451,2.715a2.924,2.924,0,0,0-3.725-.341l-.493.339A2.838,2.838,0,0,0,5.5,1.451L4.892.842a2.857,2.857,0,0,0-4.04,4.04l.609.609a2.839,2.839,0,0,0,1.267.734L2.4,6.7a2.924,2.924,0,0,0,.341,3.725l3.414,3.414a.781.781,0,0,0,1.1-1.1L3.85,9.317a1.362,1.362,0,0,1-.159-1.734L4.763,6.023A2.845,2.845,0,0,0,6.038,4.744L7.612,3.661a1.362,1.362,0,0,1,1.734.159l3.414,3.414a.781.781,0,0,0,1.1-1.1ZM4.4,4.386a1.3,1.3,0,0,1-1.83,0l-.609-.609a1.294,1.294,0,0,1,1.83-1.83l.609.609A1.3,1.3,0,0,1,4.4,4.386Z" transform="translate(-0.017 -0.007)" fill="#922d3e"/>
      </g>
    </g>
    <g id="Group_17024" data-name="Group 17024" transform="translate(25.941 0.007)">
      <g id="Group_17023" data-name="Group 17023">
        <path id="Path_18246" data-name="Path 18246" d="M345.272.842a2.86,2.86,0,0,0-4.04,0l-.609.609a2.838,2.838,0,0,0-.734,1.267l-.471-.324a2.924,2.924,0,0,0-3.725.341l-3.414,3.414a.781.781,0,0,0,1.105,1.1L336.8,3.84a1.362,1.362,0,0,1,1.734-.159l1.559,1.073a2.846,2.846,0,0,0,1.279,1.274L342.454,7.6a1.362,1.362,0,0,1-.159,1.734l-3.414,3.414a.781.781,0,1,0,1.1,1.1l3.414-3.414a2.924,2.924,0,0,0,.341-3.725l-.339-.493a2.838,2.838,0,0,0,1.262-.733l.609-.609A2.86,2.86,0,0,0,345.272.842Zm-1.1,2.935-.609.609a1.294,1.294,0,0,1-1.83-1.83l.609-.609a1.294,1.294,0,0,1,1.83,1.83Z" transform="translate(-332.05 -0.007)" fill="#922d3e"/>
      </g>
    </g>
    <g id="Group_17026" data-name="Group 17026" transform="translate(4.917 4.922)">
      <g id="Group_17025" data-name="Group 17025">
        <path id="Path_18247" data-name="Path 18247" d="M92.869,88.334l-6.477-6.477a.782.782,0,0,0-.1-.08,9.093,9.093,0,0,0,0-7.549.783.783,0,0,0,.093-.078l6.477-6.477a.781.781,0,0,0-1.1-1.1l-1.218,1.218-2.312-2.312,1.218-1.218a.781.781,0,0,0-1.1-1.1l-6.477,6.477a.776.776,0,0,0-.08.1,9.093,9.093,0,0,0-7.549,0,.785.785,0,0,0-.078-.093l-6.477-6.477a.781.781,0,0,0-1.1,1.1L67.8,65.48l-2.312,2.312-1.218-1.218a.781.781,0,0,0-1.1,1.1l6.477,6.477a.782.782,0,0,0,.1.08,9.093,9.093,0,0,0,0,7.549.791.791,0,0,0-.093.078L63.165,88.34a.781.781,0,1,0,1.1,1.1l1.218-1.218L67.8,90.538l-1.218,1.218a.781.781,0,1,0,1.1,1.1l6.477-6.476a.784.784,0,0,0,.08-.1,9.093,9.093,0,0,0,7.549,0,.784.784,0,0,0,.078.093l6.477,6.477a.781.781,0,0,0,1.1-1.1l-1.218-1.218,2.312-2.312,1.218,1.218a.781.781,0,1,0,1.1-1.1Zm-4.031-20.04.6.6L85.5,72.83q-.243-.351-.518-.677ZM87.124,66.58l.609.609-3.859,3.859q-.332-.28-.69-.528Zm-3.029,6.974a7.5,7.5,0,0,1,1.419,3.671h-5a.435.435,0,0,1-.435-.435v-.264a.435.435,0,0,1,.435-.435,1.47,1.47,0,0,0,1.469-1.469,1.07,1.07,0,0,1,1.069-1.069Zm-7.1-.9a.235.235,0,0,1,.234.234v.083A.235.235,0,0,1,77,73.2H75.163a1.777,1.777,0,0,0,0,3.555h.229a.234.234,0,0,1,0,.469H70.516a7.521,7.521,0,0,1,2.2-4.575Zm-8.1-6.064,3.939,3.939q-.351.243-.677.518L68.3,67.183ZM66.588,68.9l.609-.609,3.859,3.859q-.28.332-.528.69Zm.6,18.822-.6-.6,3.939-3.939q.243.351.518.677Zm1.714,1.714-.609-.609,3.859-3.859q.332.28.69.528Zm6.208-4.468a7.585,7.585,0,0,1-3.793-3.493h8.971a.137.137,0,0,1,.137.137v.179a.317.317,0,0,1-.316.316h-.446a1.347,1.347,0,0,0-1.346,1.346.138.138,0,0,1-.138.138h-1.4A1.7,1.7,0,0,0,75.113,84.965Zm2.9.581a7.552,7.552,0,0,1-1.37-.125v-.132a.138.138,0,0,1,.138-.138h1.4a1.7,1.7,0,0,0,1.687-1.484h.243a1.881,1.881,0,0,0,1.879-1.879v-.179a1.7,1.7,0,0,0-1.7-1.7H70.719a7.493,7.493,0,0,1-.2-1.121h4.876a1.8,1.8,0,1,0,0-3.594h-.229a.215.215,0,0,1,0-.43H77a1.8,1.8,0,0,0,1.8-1.8v-.083a1.8,1.8,0,0,0-1.8-1.8H75.022a7.526,7.526,0,0,1,7.583.943,2.636,2.636,0,0,0-2.181,2.5,2,2,0,0,0-1.9,2v.264a2,2,0,0,0,2,2h5A7.55,7.55,0,0,1,78.015,85.545Zm9.115,3.882-3.939-3.939q.351-.243.677-.518l3.859,3.859Zm1.7-1.7-3.859-3.859q.28-.332.528-.69l3.94,3.94Z" transform="translate(-62.931 -62.923)" fill="#922d3e"/>
      </g>
    </g>
  </g>
</svg>
