<svg id="twitter_1_" data-name="twitter (1)" xmlns="http://www.w3.org/2000/svg" width="16.978" height="16.978" viewBox="0 0 16.978 16.978">
  <path id="Path_18275" data-name="Path 18275" d="M122.234,108.328a11.284,11.284,0,0,1-2.609-.328c-.348-.085-.627-.17-.8-.226-.078-.026-.155-.052-.221-.076a.365.365,0,0,1-.292-.307.331.331,0,0,1,.273-.359,7.032,7.032,0,0,0,2.867-1,2.466,2.466,0,0,1-1.965-.77.4.4,0,0,1-.08-.333.592.592,0,0,1,.216-.333,2.413,2.413,0,0,1-1.508-1.533.4.4,0,0,1,.038-.338c.035-.059.112-.185.48-.3a2.8,2.8,0,0,1-.6-1.974c.046-.656.263-.753.334-.785a.359.359,0,0,1,.366.043,5,5,0,0,0,2.665,1.013,4.179,4.179,0,0,0,1.352-.092,2.83,2.83,0,0,1,.858-2.164,2.376,2.376,0,0,1,2.229-.545,2.3,2.3,0,0,1,1.524,1.24l1.026.05a.332.332,0,0,1,.178.6l-.52.375.484.356a.332.332,0,0,1-.2.6h-.592c.244,2.42-.2,4.341-1.28,5.571a5.353,5.353,0,0,1-4.223,1.624Zm-2.262-.928a10.419,10.419,0,0,0,2.262.265,4.726,4.726,0,0,0,3.725-1.4c1.275-1.447,1.29-3.748,1.077-5.423a.332.332,0,0,1,.284-.37l-.039-.029a.332.332,0,0,1,0-.536l.121-.088-.277-.013a.332.332,0,0,1-.287-.2,1.738,1.738,0,0,0-2.785-.667,2.148,2.148,0,0,0-.63,1.81.379.379,0,0,1-.205.391,3.865,3.865,0,0,1-1.87.232,5.7,5.7,0,0,1-2.66-.889,1.993,1.993,0,0,0,.828,1.833.332.332,0,0,1-.127.609,4.13,4.13,0,0,0-.565.126,1.835,1.835,0,0,0,1.665,1.04.332.332,0,0,1,.132.624,4.05,4.05,0,0,0-.456.283,2.679,2.679,0,0,0,2.034.306.332.332,0,0,1,.368.427c-.037.118-.392,1.036-2.6,1.665Zm0,0" transform="translate(-114.108 -94.594)" fill="#922d3e"/>
  <path id="Path_18276" data-name="Path 18276" d="M65.347,293.211a.331.331,0,1,1,.325-.267.334.334,0,0,1-.325.267Zm0,0" transform="translate(-62.86 -282.848)" fill="#922d3e"/>
  <path id="Path_18277" data-name="Path 18277" d="M15.021,0H1.956A1.959,1.959,0,0,0,0,1.956V15.021a1.959,1.959,0,0,0,1.956,1.956H15.021a1.959,1.959,0,0,0,1.956-1.956V1.956A1.959,1.959,0,0,0,15.021,0Zm1.293,15.021a1.3,1.3,0,0,1-1.293,1.293H2.819V11.525a.332.332,0,1,0-.663,0v4.789h-.2A1.3,1.3,0,0,1,.663,15.021V1.956A1.3,1.3,0,0,1,1.956.663h.2V8.539a.332.332,0,1,0,.663,0V.663h12.2a1.3,1.3,0,0,1,1.293,1.293Zm0,0" fill="#922d3e"/>
</svg>
