<svg xmlns="http://www.w3.org/2000/svg" width="24" height="24" viewBox="0 0 24 24">
  <g id="whatsapp_1_" data-name="whatsapp (1)" transform="translate(0 0.001)">
    <path id="Path_18271" data-name="Path 18271" d="M197.49,446.862a.47.47,0,1,1,.461-.379A.475.475,0,0,1,197.49,446.862Zm0,0" transform="translate(-187.784 -425.021)" fill="#4caf50"/>
    <path id="Path_18272" data-name="Path 18272" d="M139.585,133.793c-1.16,0-3.2-.479-5.765-3.047-2.524-2.525-3.243-4.1-2.955-6.48a3.653,3.653,0,0,1,.224-.9l0,0a3.606,3.606,0,0,1,.509-.9.458.458,0,0,1,.035-.04l.274-.279a1.794,1.794,0,0,1,1.281-.539h.007a1.8,1.8,0,0,1,1.278.529l1.03,1.03a1.809,1.809,0,0,1,0,2.556l-.068.068-.01.01-.4.374a7.619,7.619,0,0,0,3.377,3.369l.028.015.454-.454a1.81,1.81,0,0,1,2.556,0l.99.99a1.807,1.807,0,0,1-.011,2.567l-.279.274a.47.47,0,0,1-.039.034,3.57,3.57,0,0,1-.9.511,3.847,3.847,0,0,1-.911.246l-.01,0a3.607,3.607,0,0,1-.7.065Zm.706-.066h0ZM131.968,123.7a2.727,2.727,0,0,0-.168.67v0c-.22,1.823.125,3.142,2.686,5.7,2.974,2.973,5.053,2.837,5.62,2.724.025,0,.047-.009.073-.012a2.9,2.9,0,0,0,.69-.19,2.628,2.628,0,0,0,.636-.359l.259-.255a.866.866,0,0,0,.005-1.23l-.99-.991a.867.867,0,0,0-1.225,0l-.7.7a.471.471,0,0,1-.558.081l-.07-.037-.126-.068-.144-.08a8.555,8.555,0,0,1-3.761-3.763l-.074-.134c-.027-.047-.045-.085-.059-.116s-.015-.032-.025-.051a.47.47,0,0,1,.09-.57l.654-.614.063-.063a.866.866,0,0,0,0-1.225l-1.03-1.03a.871.871,0,0,0-.616-.254.861.861,0,0,0-.614.259l-.255.259a2.665,2.665,0,0,0-.357.637Zm0,0" transform="translate(-124.674 -115.907)" fill="#4caf50"/>
    <path id="Path_18273" data-name="Path 18273" d="M50.3,60.381h-.219a.47.47,0,0,1,0-.941H50.3a9.175,9.175,0,1,0-7.442-3.749l.538.732a.471.471,0,0,1,.075.4L43.018,58.5l1.776-.591a.47.47,0,0,1,.373.033l.9.488a.47.47,0,1,1-.45.827l-.717-.39-2.416.8a.47.47,0,0,1-.6-.57l.627-2.3-.4-.549a10.119,10.119,0,1,1,8.2,4.133h0Zm0,0" transform="translate(-38.262 -38.264)" fill="#4caf50"/>
    <path id="Path_18274" data-name="Path 18274" d="M12,24a12.023,12.023,0,0,1-5.558-1.362L1.757,23.9a.471.471,0,0,1-.58-.56L2.2,18.922A12,12,0,0,1,12,0a12,12,0,0,1,8.485,20.485A11.922,11.922,0,0,1,12,24ZM6.5,21.664a.471.471,0,0,1,.225.057,11.064,11.064,0,1,0-3.642-3.18.47.47,0,0,1,.079.385L2.27,22.784l4.108-1.1a.469.469,0,0,1,.122-.016Zm0,0" transform="translate(0 0)" fill="#4caf50"/>
  </g>
</svg>
